<svg width="85" height="52" viewBox="0 0 85 52" fill="none" xmlns="http://www.w3.org/2000/svg">
<path d="M7.42285 48.4863C7.42285 49.2741 7.08805 49.915 6.41846 50.4092C5.75244 50.8997 4.84652 51.145 3.70068 51.145C3.03825 51.145 2.45996 51.0877 1.96582 50.9731C1.47526 50.855 1.01514 50.7064 0.585449 50.5273V48.6099H0.811035C1.23714 48.95 1.71338 49.2114 2.23975 49.394C2.76969 49.5767 3.27816 49.668 3.76514 49.668C3.89046 49.668 4.05518 49.6572 4.25928 49.6357C4.46338 49.6143 4.62988 49.5785 4.75879 49.5283C4.91634 49.4639 5.04525 49.3833 5.14551 49.2866C5.24935 49.1899 5.30127 49.0467 5.30127 48.8569C5.30127 48.6815 5.22607 48.5311 5.07568 48.4058C4.92887 48.2769 4.71224 48.1784 4.42578 48.1104C4.125 48.0387 3.80632 47.9725 3.46973 47.9116C3.13672 47.8472 2.8234 47.7666 2.52979 47.6699C1.85661 47.4515 1.37142 47.1561 1.07422 46.7837C0.780599 46.4077 0.633789 45.9422 0.633789 45.3872C0.633789 44.6424 0.966797 44.0355 1.63281 43.5664C2.30241 43.0938 3.16178 42.8574 4.21094 42.8574C4.7373 42.8574 5.25651 42.9093 5.76855 43.0132C6.28418 43.1134 6.72998 43.2406 7.10596 43.3945V45.2368H6.88574C6.56348 44.979 6.16781 44.7642 5.69873 44.5923C5.23324 44.4168 4.757 44.3291 4.27002 44.3291C4.09814 44.3291 3.92627 44.3416 3.75439 44.3667C3.5861 44.3882 3.42318 44.4312 3.26562 44.4956C3.12598 44.5493 3.00602 44.6317 2.90576 44.7427C2.8055 44.8501 2.75537 44.9736 2.75537 45.1133C2.75537 45.3245 2.83594 45.4875 2.99707 45.6021C3.1582 45.7131 3.46257 45.8151 3.91016 45.9082C4.20378 45.9691 4.48486 46.0282 4.75342 46.0854C5.02555 46.1427 5.31738 46.2215 5.62891 46.3218C6.24121 46.5223 6.69238 46.7962 6.98242 47.1436C7.27604 47.4873 7.42285 47.9349 7.42285 48.4863Z" fill="black"/>
<path d="M16.6182 47.0039C16.6182 48.2786 16.2529 49.292 15.5225 50.0439C14.792 50.7923 13.7822 51.1665 12.4932 51.1665C11.2077 51.1665 10.1997 50.7923 9.46924 50.0439C8.73877 49.292 8.37354 48.2786 8.37354 47.0039C8.37354 45.7184 8.73877 44.7033 9.46924 43.9585C10.1997 43.2101 11.2077 42.8359 12.4932 42.8359C13.7751 42.8359 14.783 43.2101 15.5171 43.9585C16.2511 44.7033 16.6182 45.7184 16.6182 47.0039ZM13.8843 49.0288C14.0848 48.7853 14.2334 48.4989 14.3301 48.1694C14.4268 47.8364 14.4751 47.4461 14.4751 46.9985C14.4751 46.5187 14.4196 46.1105 14.3086 45.7739C14.1976 45.4373 14.0526 45.1652 13.8735 44.9575C13.6909 44.7427 13.4797 44.5869 13.2397 44.4902C13.0034 44.3936 12.7563 44.3452 12.4985 44.3452C12.2371 44.3452 11.9901 44.3918 11.7573 44.4849C11.5282 44.578 11.3169 44.7319 11.1235 44.9468C10.9445 45.1473 10.7977 45.4248 10.6831 45.7793C10.5721 46.1302 10.5166 46.5384 10.5166 47.0039C10.5166 47.4801 10.5703 47.8866 10.6777 48.2231C10.7887 48.5562 10.9338 48.8283 11.1128 49.0396C11.2918 49.2508 11.5013 49.4066 11.7412 49.5068C11.9811 49.6071 12.2336 49.6572 12.4985 49.6572C12.7635 49.6572 13.016 49.6071 13.2559 49.5068C13.4958 49.403 13.7052 49.2437 13.8843 49.0288Z" fill="black"/>
<path d="M25.2012 48.105C25.2012 49.0933 24.9004 49.8506 24.2988 50.377C23.6973 50.9033 22.811 51.1665 21.6401 51.1665C20.4692 51.1665 19.583 50.9033 18.9814 50.377C18.3835 49.8506 18.0845 49.0951 18.0845 48.1104V43.0024H20.1577V47.9922C20.1577 48.5472 20.2741 48.9608 20.5068 49.2329C20.7396 49.505 21.1174 49.6411 21.6401 49.6411C22.1558 49.6411 22.5317 49.5104 22.7681 49.249C23.008 48.9876 23.1279 48.5687 23.1279 47.9922V43.0024H25.2012V48.105Z" fill="black"/>
<path d="M34.4072 51H32.4199L29.0254 45.5107V51H27.1348V43.0024H29.6001L32.5166 47.584V43.0024H34.4072V51Z" fill="black"/>
<path d="M44.0054 47.0093C44.0054 47.7541 43.8353 48.4219 43.4951 49.0127C43.1549 49.5999 42.7253 50.0511 42.2061 50.3662C41.8158 50.6025 41.3879 50.7673 40.9224 50.8604C40.4569 50.9535 39.9054 51 39.2681 51H36.4482V43.0024H39.3486C40.0003 43.0024 40.5625 43.0579 41.0352 43.1689C41.5078 43.2764 41.9053 43.4303 42.2275 43.6309C42.779 43.9674 43.2122 44.4222 43.5273 44.9951C43.846 45.5645 44.0054 46.2358 44.0054 47.0093ZM41.873 46.9932C41.873 46.4668 41.7764 46.0174 41.583 45.645C41.3932 45.269 41.0907 44.9754 40.6753 44.7642C40.464 44.6603 40.2474 44.5905 40.0254 44.5547C39.807 44.5153 39.4757 44.4956 39.0317 44.4956H38.5107V49.5015H39.0317C39.5223 49.5015 39.8822 49.48 40.1113 49.437C40.3405 49.3905 40.5643 49.3081 40.7827 49.1899C41.1587 48.9751 41.4344 48.6886 41.6099 48.3306C41.7853 47.9689 41.873 47.5231 41.873 46.9932Z" fill="black"/>
<path d="M49.1938 51.1558C48.5994 51.1558 48.0498 51.068 47.5449 50.8926C47.0436 50.7171 46.6121 50.4557 46.2505 50.1084C45.8888 49.7611 45.6077 49.3278 45.4072 48.8086C45.2103 48.2894 45.1118 47.6896 45.1118 47.0093C45.1118 46.3755 45.2067 45.8008 45.3965 45.2852C45.5863 44.7695 45.862 44.3273 46.2236 43.9585C46.571 43.604 47.0007 43.3301 47.5127 43.1367C48.0283 42.9434 48.5905 42.8467 49.1992 42.8467C49.5358 42.8467 49.8384 42.8664 50.1069 42.9058C50.3791 42.9416 50.6297 42.9899 50.8589 43.0508C51.0988 43.1188 51.3154 43.1958 51.5088 43.2817C51.7057 43.3641 51.8776 43.4411 52.0244 43.5127V45.4517H51.7881C51.6878 45.3657 51.5607 45.2637 51.4067 45.1455C51.2563 45.0273 51.0845 44.911 50.8911 44.7964C50.6942 44.6818 50.4811 44.5851 50.252 44.5063C50.0228 44.4276 49.7775 44.3882 49.5161 44.3882C49.2261 44.3882 48.9504 44.4347 48.689 44.5278C48.4276 44.6174 48.1859 44.7677 47.9639 44.979C47.7526 45.1831 47.5807 45.4535 47.4482 45.79C47.3193 46.1266 47.2549 46.5348 47.2549 47.0146C47.2549 47.516 47.3247 47.9349 47.4644 48.2715C47.6076 48.6081 47.7866 48.873 48.0015 49.0664C48.2199 49.2633 48.4634 49.4048 48.7319 49.4907C49.0005 49.5731 49.2655 49.6143 49.5269 49.6143C49.7775 49.6143 50.0246 49.5767 50.2681 49.5015C50.5151 49.4263 50.7425 49.3242 50.9502 49.1953C51.1257 49.0915 51.2886 48.9805 51.439 48.8623C51.5894 48.7441 51.7129 48.6421 51.8096 48.5562H52.0244V50.4683C51.8239 50.5578 51.6323 50.6419 51.4497 50.7207C51.2671 50.7995 51.0755 50.8675 50.875 50.9248C50.6136 51 50.3683 51.0573 50.1392 51.0967C49.91 51.1361 49.5949 51.1558 49.1938 51.1558Z" fill="black"/>
<path d="M60.7095 51H58.647V47.4766H55.6016V51H53.5391V43.0024H55.6016V45.9297H58.647V43.0024H60.7095V51Z" fill="black"/>
<path d="M70.1465 51H68.0142L67.4609 49.3833H64.4961L63.9429 51H61.8643L64.8184 43.0024H67.1924L70.1465 51ZM66.9614 47.917L65.9785 45.0488L64.9956 47.917H66.9614Z" fill="black"/>
<path d="M75.6196 51H70.936V49.582H72.2466V44.4204H70.936V43.0024H75.6196V44.4204H74.3091V49.582H75.6196V51Z" fill="black"/>
<path d="M84.5732 51H82.5859L79.1914 45.5107V51H77.3008V43.0024H79.7661L82.6826 47.584V43.0024H84.5732V51Z" fill="black"/>
<path d="M37.0951 31.3377C35.3865 32.9861 33.0617 34 30.5 34C25.2533 34 21 29.7467 21 24.5C21 19.2533 25.2533 15 30.5 15C35.7467 15 40 19.2533 40 24.5C40 24.6677 39.9957 24.8344 39.9871 25H43.9909C43.997 24.8341 44 24.6674 44 24.5C44 17.0442 37.9558 11 30.5 11C23.0442 11 17 17.0442 17 24.5C17 31.9558 23.0442 38 30.5 38C34.057 38 37.2927 36.6243 39.7041 34.376C38.3663 33.7286 37.3927 32.6308 37.0951 31.3377Z" fill="black"/>
<path d="M61.7389 12.1179C64.7362 12.6964 67 15.3338 67 18.5C67 19.9726 66.5103 21.3308 65.6848 22.4207L69.4623 23.9735C70.4377 22.3797 71 20.5055 71 18.5C71 12.701 66.299 8 60.5 8C60.3722 8 60.2449 8.00228 60.1182 8.00681L61.7389 12.1179Z" fill="black"/>
<path d="M62.5864 4.03502C69.3657 4.52892 74.7123 10.1855 74.7123 17.0908C74.7123 19.8209 73.8766 22.3557 72.4471 24.4535L76.2094 26C77.7971 23.4058 78.7123 20.3552 78.7123 17.0908C78.7123 7.65182 71.0605 0 61.6215 0C61.4134 0 61.2062 0.00371732 61 0.0110892L62.5864 4.03502Z" fill="black"/>
<path d="M49.462 34C54.7087 34 58.962 29.7467 58.962 24.5C58.962 19.2533 54.7087 15 49.462 15C46.8667 15 44.5144 16.0408 42.7998 17.7277C42.7183 17.4828 42.6214 17.2388 42.5087 16.9974C42.0091 15.9281 41.2716 15.0656 40.4243 14.4714C42.8171 12.3136 45.9862 11 49.462 11C56.9179 11 62.962 17.0442 62.962 24.5C62.962 31.9558 56.9179 38 49.462 38C42.3494 38 36.5215 32.4995 36 25.5202L40.0109 25.47C40.4968 30.2611 44.5428 34 49.462 34Z" fill="black"/>
</svg>
